<?xml version="1.0" standalone="no"?>
<!DOCTYPE svg PUBLIC "-//W3C//DTD SVG 20010904//EN"
 "http://www.w3.org/TR/2001/REC-SVG-20010904/DTD/svg10.dtd">
<svg version="1.0" xmlns="http://www.w3.org/2000/svg"
 width="1546.000000pt" height="404.000000pt" viewBox="0 0 1546.000000 404.000000"
 preserveAspectRatio="xMidYMid meet">
<metadata>
Created by potrace 1.16, written by Peter Selinger 2001-2019
</metadata>
<g transform="translate(0.000000,404.000000) scale(0.100000,-0.100000)"
fill="#000000" stroke="none">
<path d="M3467 2257 c-175 -369 -317 -675 -317 -680 0 -4 24 -7 53 -7 l52 0
102 218 103 217 288 3 288 2 99 -220 100 -220 113 0 c61 0 112 2 112 4 0 2
-108 240 -241 528 -424 922 -378 828 -409 828 -26 0 -39 -26 -343 -673z m422
69 c55 -121 101 -221 101 -223 0 -2 -108 -3 -240 -3 -132 0 -240 3 -240 7 0 7
172 377 218 468 l25 50 17 -40 c10 -22 63 -139 119 -259z"/>
<path d="M2750 2329 c0 -506 -2 -575 -16 -605 -26 -54 -68 -78 -145 -82 -57
-4 -73 0 -125 26 -32 17 -84 51 -114 77 l-55 46 -33 -38 c-17 -21 -31 -45 -29
-53 4 -25 124 -99 200 -122 89 -28 233 -30 318 -5 107 32 186 115 208 218 7
32 11 244 11 579 l0 530 -110 0 -110 0 0 -571z"/>
<path d="M4650 2235 l0 -665 303 0 c166 0 330 5 365 10 348 57 575 292 599
620 18 254 -116 498 -334 607 -146 73 -288 93 -670 93 l-263 0 0 -665z m598
550 c182 -43 315 -166 379 -352 23 -67 27 -94 27 -193 0 -187 -47 -315 -158
-426 -113 -113 -221 -148 -461 -149 l-160 0 -3 568 -2 567 157 0 c104 0 179
-5 221 -15z"/>
<path d="M6220 2235 l0 -665 465 0 465 0 0 40 0 40 -352 2 -353 3 -3 298 -2
297 235 0 235 0 0 45 0 45 -235 0 -235 0 0 235 0 235 353 2 352 3 3 43 3 42
-465 0 -466 0 0 -665z"/>
<path d="M7410 2235 l0 -665 465 0 465 0 0 40 0 40 -352 2 -353 3 -3 298 -2
297 235 0 235 0 0 45 0 45 -235 0 -235 0 0 235 0 235 353 2 352 3 3 43 3 42
-465 0 -466 0 0 -665z"/>
<path d="M8600 2236 l0 -666 110 0 110 0 0 310 0 310 83 0 82 -1 228 -309 228
-310 130 0 129 0 -240 320 c-199 265 -237 322 -223 327 162 58 229 110 279
218 29 61 32 158 8 228 -21 62 -89 136 -157 170 -109 56 -138 60 -464 64
l-303 5 0 -666z m495 569 c122 -31 193 -112 202 -229 4 -39 1 -84 -7 -111 -18
-66 -85 -135 -162 -170 -56 -25 -77 -29 -185 -33 l-123 -4 0 274 c0 151 3 278
7 281 13 13 209 7 268 -8z"/>
<path d="M4060 1195 c-179 -56 -234 -292 -95 -413 67 -59 90 -67 205 -67 78 0
117 5 153 18 l47 19 0 104 c0 92 -2 104 -17 105 -10 0 -40 2 -68 4 -57 3 -85
-2 -85 -16 0 -5 20 -9 45 -9 l45 0 0 -89 c0 -87 0 -89 -27 -99 -55 -22 -82
-24 -135 -8 -128 37 -187 188 -124 322 27 59 63 88 128 104 68 17 118 0 165
-55 40 -49 50 -54 60 -29 8 22 -42 72 -102 100 -57 27 -125 30 -195 9z"/>
<path d="M6000 1201 c-121 -37 -200 -148 -187 -263 16 -132 125 -228 261 -228
109 0 190 48 238 139 88 169 -42 364 -242 360 -25 0 -56 -4 -70 -8z m144 -31
c53 -26 84 -73 98 -149 14 -75 0 -168 -34 -217 -45 -65 -122 -89 -191 -60 -73
31 -109 102 -109 216 0 112 36 184 107 216 43 19 82 17 129 -6z"/>
<path d="M4940 960 l0 -240 40 0 40 0 0 110 c0 61 3 111 8 111 47 8 51 5 133
-107 l83 -114 48 0 47 0 -84 112 c-47 61 -85 114 -85 118 0 3 16 12 36 19 73
26 99 128 46 181 -39 38 -88 50 -209 50 l-103 0 0 -240z m218 185 c38 -32 46
-65 28 -109 -18 -43 -60 -66 -121 -66 l-45 0 0 100 0 100 54 0 c43 0 60 -5 84
-25z"/>
<path d="M6890 1028 c0 -184 10 -229 56 -270 77 -68 253 -62 317 10 38 42 46
90 47 265 0 159 -1 167 -19 167 -19 0 -20 -10 -23 -190 l-3 -190 -37 -37 c-32
-32 -44 -37 -95 -41 -49 -3 -64 0 -93 20 -62 42 -70 71 -70 266 l0 172 -40 0
-40 0 0 -172z"/>
<path d="M7880 961 l0 -241 40 0 40 0 0 111 0 111 46 -7 c145 -21 249 86 184
192 -32 53 -71 67 -197 71 l-113 4 0 -241z m163 200 c10 0 32 -14 48 -30 39
-40 41 -109 4 -147 -22 -21 -33 -25 -78 -22 l-52 3 -3 89 c-2 49 -1 95 2 102
3 7 17 11 33 10 15 -2 36 -4 46 -5z"/>
</g>
</svg>
